<svg width="155" height="155" viewBox="0 0 155 155" fill="none" xmlns="http://www.w3.org/2000/svg">
<path d="M9.73381 142.247C12.7354 144.496 24.8914 145.173 57.6878 145.104C51.0763 143.923 52.3247 142.325 51.8661 128.533C50.6309 129.051 44.4795 131.398 44.4795 131.398C44.2387 138.553 44.8254 142.343 40.6967 141.712C38.2595 141.343 28.3075 128.841 25.5391 124.967C15.7755 111.302 17.6407 110.411 18.1379 109.802C18.7169 109.095 26.3675 103.611 32.1514 100.046C34.7762 97.8415 43.5554 85.4824 43.5554 85.4824C44.7212 83.6466 44.488 80.7207 41.2765 77.652C40.3964 78.4865 38.6957 79.8406 37.5709 80.8334C38.549 84.9034 37.1076 86.8365 34.7916 87.8371C33.0237 88.5967 32.3984 88.2231 31.1508 86.9647C20.6569 93.8626 12.8543 83.459 13.4811 74.9816C13.925 68.9785 21.7022 60.5613 21.7632 60.5165C25.1999 57.1981 28.8262 54.082 32.6238 51.1837C39.7857 45.9781 53.6031 50.5591 55.1757 50.868C56.3492 45.162 61.0051 43.7724 61.9153 41.7042C64.0885 36.7634 68.3763 31.6774 74.3338 29.4656C79.7379 27.4584 87.2495 27.104 95.6752 30.1048C101.475 32.1738 110.02 37.8982 112.134 42.7804C113.157 45.142 114.458 49.1363 116.766 51.5813C119.203 54.1691 125.936 65.7306 120.911 68.6118C119.225 69.5745 117.887 67.6637 116.856 68.4087C114.592 70.0554 119.255 76.1643 116.066 78.3831C114.381 79.5565 112.5 77.4651 111.417 78.3059C110.334 79.1466 112.498 84.6548 106.227 85.4678C106.723 86.1742 107.771 88.01 108.157 88.6639C103.478 91.9287 99.1245 95.51 89.5918 101.888C89.0962 103.69 88.1958 105.355 86.9592 106.756C86.4111 127.802 86.9515 119.88 83.8002 133.964C90.2318 138.545 92.7663 140.801 88.3959 144.908C110.918 144.404 134.981 145.156 141.812 144.57C152.027 143.697 151.214 134.249 149.492 67.1658C149.063 50.2033 107.142 25.2968 95.4745 15.3379C83.8071 5.37897 70.9872 7.62859 57.5149 19.333C46.4574 28.9499 5.04001 56.1848 4.566 68.9877C3.1594 106.614 3.3771 137.486 9.73381 142.247Z" fill="#3D9CFB"/>
<path d="M127.908 125.914C135.054 131.082 137.544 133.143 139.778 134.792C141.065 135.748 143.246 134.996 138.259 131.054C118.175 115.475 97.4809 103.627 90.2595 102.597C96.1947 97.6019 104.762 92.6749 114.459 85.8296C122.733 79.9924 127.939 74.3436 137.364 72.6807C138.6 72.463 138.996 71.0186 137.755 70.7855C127.873 71.1715 119.213 80.9852 108.237 87.4245C107.945 86.9428 107.62 86.4394 107.268 85.9276C113.556 85.1981 110.261 77.8215 112.909 79.1046C122.613 81.9556 114.24 67.7237 117.911 69.0029C119.461 70.093 122.741 69.2129 123.095 66.1743C124.05 57.9447 116.324 51.7686 113.932 45.5709C112.006 41.05 110.134 36.1061 97.3226 30.4133C81.0186 23.168 69.2424 27.0806 62.2163 39.1918C60.1551 43.5845 56.0781 44.5249 54.5441 49.7305C35.264 43.4865 28.2457 51.9191 16.2896 66.6182C15.5162 65.9664 14.6021 65.5029 13.6193 65.2641C13.3713 65.2316 13.1205 65.296 12.9189 65.4438C12.7172 65.5917 12.5804 65.8116 12.5368 66.0578C12.4933 66.304 12.5463 66.5575 12.685 66.7655C12.8236 66.9736 13.0371 67.1202 13.2811 67.1748C14.0081 67.3786 14.6778 67.7486 15.2374 68.2556C6.99234 78.4183 19.5544 95.6287 31.2179 88.0468C35.0394 91.3664 40.0343 86.9258 38.5898 81.4569C39.6205 80.5398 40.4851 79.7647 41.2826 78.9819C44.3289 81.9688 43.4195 83.0665 42.2607 84.9549C40.4257 87.941 33.3093 97.4112 30.9246 99.4578C24.1394 103.911 20.6715 105.807 16.8277 109.793C16.3992 110.328 15.1054 111.381 22.3491 122.078C19.5875 124.179 17.2581 126.794 15.4891 129.78C14.6398 131.359 16.1067 132.706 17.3318 130.796C18.994 128.193 21.5779 125.267 23.6623 123.988C30.5748 133.624 45.4916 155.657 45.2013 132.375C46.9839 131.638 49.3987 130.66 50.9103 130.005C51.6252 143.438 46.8634 145.667 66.5118 145.321C71.993 145.344 81.8346 145.066 88.2052 144.982C89.943 144.96 91.1234 143.38 91.3944 141.817C91.8305 139.245 90.7173 138.116 84.8724 133.874C87.1599 123.538 88.0377 124.005 87.9196 106.568C88.4022 105.892 88.7847 105.149 89.0552 104.364C92.8619 104.109 108.17 111.639 127.908 125.914ZM90.41 100.075C91.741 95.4256 93.163 90.2277 95.8712 84.8267C97.7873 83.8869 99.5397 82.6451 101.061 81.1489C103.102 83.4695 104.968 85.9385 106.643 88.5354C100.091 93.0965 93.9752 97.4444 90.41 100.077V100.075ZM61.1108 50.731C64.3077 47.4438 67.2097 49.0681 69.7573 46.9852C82.6583 36.3933 85.8776 44.7209 95.0398 53.3157C92.4821 53.5859 91.4214 55.7676 93.0611 55.9938C94.1072 56.1436 94.5588 54.5864 97.8229 55.5422C100.026 57.1964 102.316 58.7308 104.684 60.1387C111.756 68.3459 98.1417 87.159 86.5261 84.2778C72.5829 80.8185 59.4109 72.4908 58.4628 60.7509C58.0267 55.4024 59.0874 52.8147 61.1108 50.731ZM68.204 78.5125C73.2368 82.1111 78.9534 84.6405 85.0014 85.9446C84.234 87.7797 83.3083 89.9459 82.5564 91.7663C78.7952 90.1698 68.7089 85.3787 65.8571 83.3854C66.6167 81.7502 67.3991 80.1258 68.204 78.5125ZM62.3013 86.5414C60.1921 91.5216 58.713 94.6474 56.5158 94.8234C55.1471 94.9284 52.0706 94.1842 51.4685 91.5139C51.0052 89.4449 59.6154 77.0634 61.5709 72.49C63.0976 74.2604 64.7932 75.8777 66.6338 77.319C64.879 80.7899 63.4021 83.9397 62.3013 86.5414ZM37.2064 80.1175C36.8003 80.4263 36.3942 80.8771 36.5826 81.426C37.9058 85.2475 34.8518 89.1739 32.264 86.248C30.3988 84.6685 27.0738 90.2624 21.5076 87.1582C22.1252 85.7292 25.1855 84.2624 23.9448 82.6898C22.1916 81.9178 20.9958 85.1348 19.8447 86.143C18.4615 85.1135 17.2874 83.8296 16.3854 82.3602C17.2199 81.3828 18.4389 79.9986 19.2356 79.0583C19.4014 78.8615 19.4826 78.6071 19.4614 78.3507C19.4403 78.0942 19.3186 77.8565 19.1229 77.6895C17.5133 76.794 16.5652 79.6597 15.4072 80.5251C12.3678 73.0474 17.6406 67.5554 24.1556 60.2213C28.6464 62.5682 38.2972 72.9332 40.1555 77.4093C39.2954 78.2469 38.3559 79.0899 37.2048 80.1206L37.2064 80.1175ZM25.583 58.8024C27.7124 56.7497 29.9577 54.8209 32.308 53.0254C36.6938 58.0049 43.9977 65.8655 45.8104 71.6432C46.4427 72.9664 43.1254 74.8478 41.6508 76.0436C39.141 71.024 30.4799 61.736 25.583 58.8024ZM42.7116 77.6756C44.8176 75.9077 48.5858 74.2456 47.6609 71.0858C45.7425 64.9483 38.369 56.9665 33.8914 51.889C40.2026 47.406 49.5006 49.7753 54.179 51.6489C52.9831 58.2681 57.3913 65.3243 60.2269 70.7777C58.4891 74.8169 53.8632 82.0992 51.6066 86.3113C49.2951 85.55 47.1522 84.3497 45.2955 82.7763C45.4267 81.3465 44.8176 79.7593 42.7116 77.6756ZM41.6956 140.554C36.1294 141.05 19.1437 114.505 18.4443 110.909C18.9027 110.39 19.4008 109.907 19.9343 109.465C26.2377 117.551 37.7468 125.261 43.2682 132.007C43.2226 139.486 42.8915 139.975 41.6956 140.554ZM89.4829 141.494C88.8135 144 84.6015 143.473 78.6284 143.51C69.2872 143.578 55.0984 144.518 53.5189 142.089C53.187 141.51 53.0134 140.853 53.0156 140.186C61.7786 139.425 76.0862 135.289 83.4504 135.245C89.5076 139.636 89.831 140.208 89.4844 141.494H89.4829ZM83.0212 133.288C75.4254 133.521 61.7609 137.417 52.9191 138.245C52.821 135.296 52.8743 131.972 52.8419 129.151C57.7534 126.835 59.2734 125.247 63.8692 117.965C65.7722 114.948 67.239 112.955 66.494 112.451C65.1476 111.54 63.9673 114.182 62.2673 116.867C58.967 122.088 58.1301 124.073 54.7495 126.086C52.6898 127.313 49.6859 128.549 44.6045 130.534C38.8654 123.758 27.7925 116.288 21.4443 108.246C23.7989 106.418 27.4922 103.951 32.1335 101.002C35.3829 98.0682 42.5973 88.4251 44.6578 84.7395C46.4691 86.1794 48.515 87.2964 50.7057 88.0414C47.6748 93.6832 53.6316 97.3618 58.3262 96.5713C60.3041 96.2401 63.0879 89.5684 65.0512 85.168C68.624 87.5218 78.2301 92.028 81.8253 93.555C77.726 102.544 77.6565 107.156 85.9942 107.652C86.1069 123.768 85.0376 124.13 83.0227 133.288H83.0212ZM86.5114 104.959C85.2631 106.553 80.9977 105.673 80.5013 102.822C80.0204 100.069 85.1581 90.7642 86.963 86.2735C89.0649 86.5742 91.2068 86.4202 93.2441 85.8218C88.7363 95.7537 88.5094 102.397 86.5129 104.959H86.5114Z" fill="#001434"/>
<path d="M77.8476 45.6692C78.7665 45.4876 79.7156 45.531 80.6141 45.7955C81.5126 46.0601 82.3338 46.538 83.0077 47.1885C83.8422 48.1296 85.1369 46.926 84.4367 45.8761C82.7383 43.3408 76.9482 42.5441 76.7166 44.8833C76.6664 45.4214 77.3134 45.7595 77.8476 45.6692Z" fill="#001434"/>
<path d="M74.8538 61.293C83.1205 63.0988 88.7847 49.7762 78.5594 47.505C68.7302 45.3233 65.2855 59.3599 74.8538 61.293ZM71.1829 53.4548C74.3721 53.9891 78.5247 54.6206 82.0219 54.944C81.0067 61.466 69.9191 60.5789 71.1829 53.4548Z" fill="#001434"/>
<path d="M80.9465 64.3169C80.9565 64.5676 81.0631 64.8047 81.244 64.9785C81.4249 65.1523 81.666 65.2494 81.9169 65.2494C82.1678 65.2494 82.4089 65.1523 82.5898 64.9785C82.7707 64.8047 82.8773 64.5676 82.8873 64.3169C82.8621 64.0133 82.9124 63.7082 83.0336 63.4287C83.1548 63.1492 83.3432 62.9041 83.5821 62.715C84.6428 61.9623 85.8387 62.8802 86.4625 61.7222C87.0569 60.6159 84.1156 59.7513 82.0852 61.5261C81.6867 61.8669 81.3755 62.2979 81.1774 62.7834C80.9793 63.2689 80.9001 63.7946 80.9465 64.3169Z" fill="#001434"/>
<path d="M95.5323 72.6889C104.4 73.3837 107.253 60.065 97.4353 58.4338C87.3267 56.7539 85.277 71.8852 95.5323 72.6889ZM90.7258 64.2416C93.8625 64.7681 98.0529 65.4228 101.64 65.7686C101.129 73.1405 88.9278 71.8389 90.7258 64.2416Z" fill="#001434"/>
<path d="M78.5313 67.6193C78.281 67.5891 78.0288 67.6576 77.8281 67.8101C77.6274 67.9626 77.4939 68.1872 77.4559 68.4364C77.4179 68.6855 77.4783 68.9397 77.6244 69.1451C77.7705 69.3506 77.9908 69.4911 78.2387 69.5369C82.7595 70.2063 82.443 71.4253 82.7595 72.1023C83.1278 72.8921 84.8725 72.9299 84.6124 71.4075C84.3522 69.8851 83.2629 67.9651 78.5313 67.6193Z" fill="#001434"/>
<path d="M85.3018 98.9863C82.3605 97.9634 80.6003 102.229 84.1731 103.232C87.2272 104.102 88.0857 99.9567 85.3018 98.9863Z" fill="#001434"/>
<path d="M57.206 88.1767C56.9562 88.0079 56.6742 87.8925 56.3777 87.8379C56.0812 87.7833 55.7766 87.7906 55.483 87.8594C55.1895 87.9282 54.9133 88.0569 54.6719 88.2375C54.4305 88.4182 54.2291 88.6468 54.0803 88.909C53.9315 89.1712 53.8385 89.4614 53.8072 89.7612C53.7759 90.0611 53.807 90.3642 53.8985 90.6515C53.99 90.9388 54.1399 91.204 54.3388 91.4306C54.5377 91.6572 54.7814 91.8401 55.0544 91.968C55.3042 92.1368 55.5862 92.2522 55.8827 92.3068C56.1793 92.3614 56.4839 92.3541 56.7774 92.2853C57.071 92.2165 57.3471 92.0878 57.5885 91.9071C57.8299 91.7265 58.0314 91.4979 58.1802 91.2357C58.329 90.9735 58.4219 90.6833 58.4532 90.3834C58.4845 90.0836 58.4534 89.7805 58.3619 89.4932C58.2704 89.2059 58.1205 88.9406 57.9216 88.7141C57.7227 88.4875 57.479 88.3046 57.206 88.1767Z" fill="#001434"/>
</svg>
