<svg width="103" height="77" viewBox="0 0 103 77" fill="none" xmlns="http://www.w3.org/2000/svg">
<path d="M81.1754 1.83215C76.2797 3.16429 76.209 6.68163 70.877 7.2659C67.4443 7.64159 62.6457 10.6471 62.6626 15.7653C72.9833 8.97958 68.9816 18.5488 83.6965 11.8203C88.2679 10.8977 89.2074 16.6698 98.7428 17.5415C99.736 18.3215 99.3633 17.8921 100.428 20.8035C107.743 18.304 103.621 8.38771 101.246 7.8753C100.05 7.61296 98.8947 9.72511 95.2231 7.3401C90.7335 4.41172 85.3541 0.694564 81.1754 1.83215Z" fill="#3D9CFB"/>
<path d="M99.4782 39.4785C92.613 37.5773 91.178 47.8588 98.1291 48.1375C103.469 47.6882 104.339 40.834 99.4782 39.4785ZM99.7061 46.1509C96.9886 47.9657 93.2387 44.3689 95.6354 41.7619C98.5732 38.5279 103.885 43.3616 99.7061 46.1509Z" fill="#3D9CFB"/>
<path d="M104.972 48.8037C100.036 51.8665 104.938 61.2938 110.141 57.2173C110.292 57.1032 110.394 56.9345 110.423 56.7471C110.452 56.5596 110.407 56.3682 110.297 56.2134C110.188 56.0586 110.022 55.9526 109.835 55.918C109.649 55.8833 109.456 55.9227 109.298 56.0277C105.22 58.9345 102.749 51.8402 105.752 50.033C107.346 49.0737 108.462 49.1964 109.458 50.5513C112.965 51.7643 108.769 45.7106 104.972 48.8037Z" fill="#3D9CFB"/>
<path d="M97.4517 63.2011C102.376 60.6508 97.5201 53.4666 92.4766 55.7809C86.2827 58.7437 91.7422 66.6227 97.4517 63.2011ZM93.0171 57.1381C96.0056 55.7148 100.196 59.6207 96.837 61.8807C93.0626 64.3341 88.5941 59.5518 93.0176 57.1381H93.0171Z" fill="#3D9CFB"/>
<path d="M8.41426 15.7951C6.5808 20.287 8.27695 41.5324 10.8332 44.0372C14.2886 47.43 34.9368 26.5031 36.7697 21.9089C38.6025 17.3148 36.6446 1.50081 35.5287 -1.00398C33.8968 -4.65453 10.2495 11.3049 8.41426 15.7951ZM13.03 25.3024C11.9883 23.0079 12.3926 19.826 12.6374 19.171C13.0359 18.0954 15.3642 16.592 17.6528 16.3361C19.1556 16.1649 19.1953 21.4427 18.8027 22.8484C18.5152 23.8744 13.7393 26.8577 13.0329 25.3036L13.03 25.3024ZM20.8377 33.9736C20.808 34.4138 20.6905 34.8435 20.492 35.2375C20.2935 35.6315 20.0181 35.9817 19.682 36.2675C17.9747 37.7282 16.4101 38.7156 15.6464 38.4597C14.9453 38.226 13.7732 35.9718 14.1886 32.4194C14.2346 32.0025 14.3716 31.6008 14.59 31.2427C14.8084 30.8845 15.1028 30.5788 15.4524 30.347C17.4676 29.0207 18.635 28.4347 19.2724 28.4347C20.2119 28.4288 21.0597 30.7227 20.8377 33.9736ZM26.1324 16.9712C24.8569 15.1273 24.8855 11.479 25.4721 10.5214C26.0926 9.50829 28.2217 7.27694 30.5267 7.02045C32.03 6.84984 32.0698 12.127 31.6771 13.5328C31.3868 14.5553 27.0999 18.3694 26.1324 16.9689V16.9712ZM32.172 25.6506C30.5781 27.3812 28.9445 27.9048 28.4379 27.768C27.9483 27.6372 27.1227 25.6676 27.0433 22.6165C27.0721 22.2473 27.1749 21.8877 27.3455 21.5591C27.5161 21.2305 27.7511 20.9395 28.0365 20.7036C28.9428 19.862 29.9349 19.1178 30.9965 18.4833C32.3175 17.8231 32.983 19.3013 33.3137 22.4967C33.3792 23.0748 33.3102 23.6603 33.1122 24.2074C32.9142 24.7544 32.5924 25.2484 32.172 25.6506Z" fill="#3D9CFB"/>
<path d="M70.9625 49.7211C75.0729 50.0132 77.9481 44.1191 73.4165 42.0531C67.6438 39.3485 64.2954 49.2507 70.9625 49.7211ZM69.6987 43.7434C72.7276 41.5062 76.1205 45.4909 73.1828 47.4664C70.0919 49.9887 67.0169 46.015 69.6987 43.7434Z" fill="#3D9CFB"/>
<path d="M60.7501 55.6021C61.7066 55.9211 61.7522 54.617 62.3102 54.1905C65.29 51.8534 69.8987 57.2416 66.3118 59.2737C65.9787 59.4976 65.6169 59.6757 65.2362 59.803C65.0582 59.8677 64.9123 59.9991 64.8295 60.1694C64.7468 60.3398 64.7336 60.5356 64.7928 60.7155C64.8519 60.8955 64.9788 61.0452 65.1466 61.1332C65.3143 61.2211 65.5097 61.2403 65.6913 61.1866C70.5531 59.803 69.5739 54.2758 65.2929 52.3968C63.2438 51.4958 59.0651 53.6494 60.7501 55.6021Z" fill="#3D9CFB"/>
<path d="M70.7126 32.6239C74.2364 30.1764 72.6594 28.3377 69.5114 30.2284C67.1602 31.6306 68.3784 34.2482 70.7126 32.6239Z" fill="#3D9CFB"/>
<path d="M87.9965 23.5087C84.8712 25.4327 85.7762 27.6758 89.574 25.6775C92.0829 24.3542 90.3248 22.0656 87.9965 23.5087Z" fill="#3D9CFB"/>
<path d="M103.89 32.2723C102.774 27.5706 99.2393 39.3829 105.729 39.2917C106.515 39.2181 109.176 39.013 108.757 37.5781C108.714 37.4927 108.654 37.4168 108.582 37.3547C108.509 37.2927 108.424 37.2457 108.333 37.2165C108.242 37.1874 108.146 37.1767 108.051 37.185C107.956 37.1933 107.863 37.2204 107.778 37.2649C104.465 39.3706 102.08 35.4858 103.89 32.2723Z" fill="#3D9CFB"/>
<path d="M36.1402 9.44468C35.6506 8.51685 34.8712 9.15955 34.1192 9.87704C33.3673 10.5945 33.1178 11.5224 33.9545 11.6421C34.3927 11.6702 34.6831 11.3003 35.036 11.0047C35.594 10.532 36.5674 10.2527 36.1402 9.44468Z" fill="#001434"/>
<path d="M36.0506 7.30955C36.136 7.26874 36.2119 7.21067 36.2737 7.13901C36.3355 7.06736 36.3817 6.98367 36.4095 6.89324C36.4373 6.8028 36.446 6.70759 36.4351 6.61362C36.4242 6.51964 36.394 6.42894 36.3463 6.34725C35.6977 5.25992 34.7103 6.54123 34.0752 6.91634C33.3694 7.32533 32.2704 8.30574 32.9651 8.86956C33.4588 9.27388 34.8938 7.87338 36.0506 7.30955Z" fill="#001434"/>
<path d="M35.5989 19.9706C34.8645 20.5742 33.9595 21.28 34.5741 22.1681C35.0012 22.7886 35.9232 21.5359 36.4981 21.1205C37.267 20.5683 36.3392 19.3787 35.5989 19.9706Z" fill="#001434"/>
<path d="M14.2168 44.9052C13.1237 44.928 13.3059 46.0737 14.3991 45.9808C20.177 45.5257 38.206 27.5405 40.0049 23.0276C41.9745 18.0805 39.8478 2.00423 38.7528 -0.446213C38.3766 -1.30042 37.2098 -1.0784 37.5113 -0.173358C38.5822 3.05476 40.3637 18.2032 38.6559 22.4901C36.8855 26.927 19.106 44.7912 14.2168 44.9052Z" fill="#001434"/>
<path d="M70.0978 98.058C71.4077 97.9499 74.9543 88.3912 75.3755 87.1905C79.0302 87.3839 86.2372 87.5148 90.1881 87.2361C90.4726 87.4067 94.6969 98.0236 95.4465 98.058C96.1961 98.0925 96.4597 97.8185 96.112 97.0332L91.73 87.1222C93.1526 87.0155 94.566 86.8099 95.9601 86.5069C96.3013 86.8376 99.017 93.1332 99.6714 93.2413C100.326 93.3494 100.685 92.9398 100.326 92.2001C99.9676 91.4604 97.377 86.0857 97.377 86.0857C103.935 82.6133 106.083 68.7684 106.093 68.6159C106.229 67.6933 104.772 67.7792 104.641 68.724C102.74 77.5763 100.656 82.6881 97.013 84.5385C93.051 86.5537 84.8016 85.9787 74.9765 85.7228C73.8833 85.6942 71.6917 85.3869 71.6175 86.2487C71.5439 87.1315 72.2835 86.9148 73.8208 87.114L69.4311 97.0367C69.3817 97.1475 69.3608 97.269 69.3704 97.3899C69.3801 97.5108 69.4198 97.6274 69.4862 97.729C69.5525 97.8306 69.6432 97.914 69.7501 97.9714C69.8569 98.0289 69.9765 98.0587 70.0978 98.058Z" fill="#001434"/>
<path d="M47.1666 56.5639C48.1172 55.192 50.3544 53.2919 49.2273 52.249C49.1504 52.1901 49.0621 52.1479 48.9679 52.1251C48.8738 52.1022 48.7759 52.0993 48.6805 52.1165C48.5852 52.1336 48.4945 52.1705 48.4142 52.2247C48.3339 52.2789 48.2658 52.3493 48.2142 52.4313C42.9885 59.8656 34.4773 73.984 28.7222 76.6822C24.4126 77.8437 7.31733 74.5817 5.99395 74.462C5.29282 74.3994 4.76406 75.3787 6.33517 75.8911C10.747 77.3202 24.4097 78.7774 28.3945 78.2136C28.7775 79.8814 28.8835 81.6009 28.7082 83.3032C26.2426 83.7075 20.1632 83.4113 12.671 82.2667C11.7362 82.1136 12.0167 83.4796 12.9562 83.6047C16.782 84.2246 20.6373 84.6465 24.5067 84.8685C24.5295 88.1819 24.5008 97.2335 24.5008 97.3357C24.5347 98.776 25.958 97.3696 25.958 96.9659C25.958 96.8695 25.9867 88.273 25.9639 84.9029C27.3659 84.9976 28.7711 84.7737 30.0742 84.248C34.6 82.1586 40.4632 74.4392 45.3594 66.3107C46.6057 64.25 45.4331 63.5612 45.0176 64.2956C40.486 72.2768 34.2086 80.1294 30.2355 82.7119C30.3204 81.0739 30.1788 79.432 29.8148 77.8326C34.5802 75.3559 39.5044 67.6592 47.1666 56.5639Z" fill="#001434"/>
<path d="M81.1759 13.6852C82.0524 13.7541 82.3603 12.228 84.6769 12.6154C84.8648 12.6588 85.0623 12.6263 85.2264 12.525C85.3905 12.4237 85.508 12.2618 85.5533 12.0743C85.3319 9.285 77.9432 13.4293 81.1759 13.6852Z" fill="#001434"/>
<path d="M35.4346 16.7893C34.675 17.4045 32.9012 18.7536 34.0744 19.3969C34.8427 19.8182 35.7308 18.486 36.6983 17.803C37.4614 17.2433 36.4308 15.9713 35.4346 16.7893Z" fill="#001434"/>
<path d="M80.8801 18.8772C80.7883 21.4784 82.0807 24.9168 84.6428 23.7781C86.9139 22.3834 88.2746 21.7062 90.3354 21.3755C90.631 21.3196 90.9035 21.1773 91.1183 20.9666C91.3331 20.7559 91.4807 20.4863 91.5425 20.1918C92.6666 12.723 81.7407 10.463 80.8801 18.8772ZM83.9311 15.7344C84.5604 17.6105 85.3846 19.4154 86.3903 21.1196C85.4625 21.4117 84.5627 22.4518 83.5496 22.5219C82.0913 21.3305 81.597 17.4539 83.9311 15.7373V15.7344Z" fill="#001434"/>
<path d="M83.8688 25.8503C83.5864 25.8151 83.2997 25.8496 83.0338 25.9509C82.7678 26.0521 82.5308 26.217 82.3433 26.431C81.0281 27.6317 79.4967 28.036 77.3845 28.5929C74.3901 28.9972 74.8856 32.0944 77.1286 32.6921C78.1528 37.0158 85.2915 33.8817 85.8781 30.7845C86.3677 29.0585 85.9634 26.3399 83.8688 25.8503ZM81.1414 33.2507C80.1569 33.53 78.7961 33.6153 78.5706 32.636C79.3956 32.2942 78.7809 31.0936 78.0009 31.3097C77.0386 31.5773 75.7012 30.4555 77.3582 30.1085C79.6696 29.5791 81.6339 28.9014 83.3301 27.5751C83.4319 27.4953 83.5601 27.4571 83.6889 27.4679C83.8178 27.4787 83.9377 27.5379 84.0248 27.6335C85.8308 29.7041 83.4475 32.5963 81.1414 33.2507Z" fill="#001434"/>
<path d="M29.8723 24.5086C29.5533 24.6961 29.2004 23.6257 28.9048 23.1139C28.8053 22.9514 28.6461 22.8342 28.4614 22.7877C28.2766 22.7411 28.0809 22.7688 27.9163 22.8648C27.7516 22.9607 27.6312 23.1174 27.5807 23.3012C27.5302 23.4849 27.5538 23.6811 27.6463 23.8478C28.9556 26.0855 30.123 26.4186 30.487 26.2789C31.6257 25.829 31.6596 22.2767 32.2462 20.3012C32.3631 19.9144 31.7508 19.4932 31.347 19.4932C30.1966 19.4873 30.1855 24.3146 29.8723 24.5086Z" fill="#001434"/>
<path d="M15.0084 34.0207C16.597 36.6675 18.0601 37.1799 18.4013 35.2279C19.2385 30.5081 19.9841 29.7795 19.044 29.6083C17.5698 29.4552 17.6663 33.9524 17.228 34.681C16.8704 34.2427 16.5486 33.7763 16.2657 33.2863C16.1646 33.1273 16.0058 33.0136 15.8226 32.9692C15.6395 32.9248 15.4462 32.9531 15.2835 33.0482C15.1207 33.1432 15.0012 33.2977 14.9499 33.479C14.8986 33.6604 14.9195 33.8545 15.0084 34.0207Z" fill="#001434"/>
<path d="M3.85049 49.1403C4.4482 50.7342 4.94367 51.0812 5.71199 51.4774C7.03245 52.161 11.5927 53.2822 13.796 51.9273C21.9706 48.3048 40.7568 29.8282 42.776 24.7673C44.9676 19.2511 42.9355 -1.27736 39.8611 -4.58494C38.0855 -6.48032 33.2588 -7.56473 30.4741 -6.6965C25.4494 -5.13123 2.94369 7.27876 0.638146 14.6114C-1.11351 17.961 0.998644 41.5406 3.85049 49.1403ZM2.0293 15.0519C3.02257 11.617 13.8901 3.2163 23.0755 -1.81606C30.7604 -6.02283 32.9351 -6.33601 35.4516 -5.19141C33.971 -4.61649 31.6029 -3.89374 31.9734 -2.97701C32.0174 -2.89067 32.0787 -2.81432 32.1535 -2.75269C32.2283 -2.69107 32.315 -2.64549 32.4081 -2.61881C32.5013 -2.59212 32.599 -2.58488 32.6951 -2.59756C32.7911 -2.61023 32.8836 -2.64254 32.9666 -2.69247C34.765 -3.6945 37.9189 -4.53702 38.8018 -3.58641C41.2382 -0.950164 43.5549 18.883 41.4258 24.2286C39.9142 28.9308 18.1909 49.5089 12.6345 50.8481C11.0745 51.1099 10.2436 48.9784 9.76568 47.5066C9.42972 46.4701 9.40694 45.9408 8.83727 45.998C7.95502 46.0833 8.52994 49.5668 10.0672 51.0643C8.77812 50.9499 7.51352 50.6428 6.31554 50.1534C3.10495 48.6962 0.427808 20.5751 2.0293 15.0519Z" fill="#001434"/>
<path d="M22.7734 26.0385C22.2779 26.3522 20.6502 26.9324 21.1053 28.094C21.5266 29.1643 22.7413 28.0829 23.8666 27.3881C25.2157 26.5567 26.1493 26.3405 25.5516 25.3216C25.1701 24.638 24.4643 24.9693 22.7734 26.0385Z" fill="#001434"/>
<path d="M110.886 46.623C109.924 34.6916 105.353 31.9531 100.463 29.2117C101.208 26.6663 101.352 23.9829 100.884 21.3725C107.573 18.1899 108.592 2.66048 101.409 0.0359213C101.004 0.0420628 100.605 0.146868 100.249 0.341292C99.8929 0.535716 99.5893 0.813917 99.3645 1.15189C97.5597 4.0493 90.0284 -4.03998 85.3945 -3.7157C81.3046 -4.1878 75.2042 -4.11418 69.4263 1.93715C68.9706 2.41509 67.7471 2.96197 66.3349 3.58831C57.2495 6.62654 49.6381 16.6872 59.6006 25.4314C59.745 25.9893 59.9296 26.536 60.1527 27.0674C59.1141 27.1459 58.0839 27.3117 57.073 27.5628C55.4107 23.6576 50.3159 25.5933 49.9227 29.5213C41.4857 32.9253 43.1141 50.0878 53.0877 49.4118C61.9628 49.9528 64.4337 32.7716 56.2702 31.502C56.0842 31.4726 55.894 31.5164 55.7395 31.6241C55.585 31.7318 55.4781 31.8952 55.4414 32.0799C55.4046 32.2646 55.4407 32.4564 55.5422 32.6151C55.6436 32.7738 55.8026 32.887 55.9857 32.9312C57.8553 33.1532 59.9874 35.2764 59.725 38.5156C58.4887 38.4115 57.2629 38.2079 56.0593 37.9068C55.8749 37.8622 55.6803 37.8913 55.517 37.988C55.3537 38.0846 55.2346 38.2411 55.1849 38.4242C55.1352 38.6073 55.1589 38.8026 55.2509 38.9685C55.343 39.1344 55.4961 39.2578 55.6778 39.3126C56.9906 39.6455 58.3293 39.8666 59.6795 39.9734C59.5942 41.0987 59.3646 42.2084 58.9964 43.2752C57.571 43.0981 56.1684 42.7698 54.8124 42.2959C54.6343 42.2443 54.4431 42.2626 54.278 42.3471C54.1129 42.4315 53.9861 42.5758 53.9237 42.7505C53.8613 42.9251 53.8678 43.117 53.9419 43.287C54.0161 43.4571 54.1523 43.5924 54.3228 43.6654C55.6442 44.1234 57.0048 44.4588 58.3876 44.6675C57.0894 47.1799 54.6968 48.4454 51.6299 47.8155C43.1819 46.0797 44.9108 32.5987 50.7815 30.7547C50.9145 30.7143 51.0331 30.6365 51.123 30.5305C51.2129 30.4245 51.2705 30.2948 51.2887 30.157C51.4476 28.9674 52.2335 27.0142 53.6509 26.867C55.0117 26.7501 55.3815 27.4875 55.7227 28.2213C55.848 28.4919 56.055 28.7163 56.3145 28.863C56.574 29.0098 56.873 29.0714 57.1694 29.0393C58.3929 28.8973 59.6684 28.3902 60.7271 28.493C63.0642 34.2656 64.1825 36.5367 66.6592 38.2165C61.0911 44.5979 59.0052 53.7582 60.8749 57.9305C50.5917 62.1887 51.7018 67.8129 47.315 76.4321C43.3244 78.0997 40.5521 77.9688 40.2044 81.8741C40.1599 82.3788 40.2257 82.8872 40.3972 83.364C40.5687 83.8408 40.8419 84.2746 41.1977 84.6354C42.4042 85.6257 59.5906 92.7422 65.0787 92.7422C67.3329 92.7474 67.6858 91.0852 69.3439 87.7887C70.2548 85.8249 71.3819 83.3774 72.3436 82.8808C84.9306 81.0111 98.5021 86.5979 99.9769 67.7264C109.571 64.6526 111.586 58.2367 110.886 46.623ZM59.2582 23.2258C52.1026 15.0284 59.6906 7.32591 66.9262 4.91228C68.5435 4.18894 69.8184 3.61986 70.4733 2.93684C75.7447 -2.58513 81.1247 -2.75048 85.2175 -2.2778C90.5513 -2.47704 97.0841 6.55876 100.531 2.00317C100.623 1.8564 100.748 1.73318 100.897 1.64332C101.045 1.55345 101.212 1.49942 101.385 1.48551C106.514 4.77556 105.865 16.5884 100.567 19.8785C98.5115 11.2026 93.5691 16.1899 88.9136 10.0042C86.1851 6.37705 82.3113 7.16056 78.5135 9.50876C71.0044 14.1479 71.5706 6.90056 66.2116 11.2166C63.8494 13.1149 58.9678 17.2995 59.2582 23.2258ZM61.8828 27.467C58.6891 21.2281 62.5377 15.9849 67.1541 12.3343C71.1505 8.99285 71.0629 15.601 79.1773 10.8088C82.9821 8.56165 85.6329 7.95693 87.8987 11.0425C90.0793 13.2002 91.9635 15.0675 96.3707 15.6086C97.0824 15.6939 98.2094 16.9746 98.9894 19.5764C105.4 39.0228 74.3967 41.6813 68.9887 37.8841C65.7138 36.2452 64.855 34.8336 61.8828 27.467ZM65.6402 91.2377C62.2871 92.0919 42.9937 84.8732 42.1284 83.5124C40.2103 80.4899 43.8649 79.2548 47.4062 77.9396C49.091 79.5714 50.9178 81.0498 52.8651 82.3573C53.03 83.4429 52.8342 84.5528 52.3077 85.5164C52.2401 85.6268 52.203 85.7531 52.2 85.8824C52.1971 86.0118 52.2284 86.1396 52.2908 86.253C52.3532 86.3663 52.4445 86.4611 52.5555 86.5278C52.6664 86.5944 52.7929 86.6305 52.9223 86.6324C54.1861 86.3192 54.2603 84.2012 54.3626 83.3476C55.1221 83.8314 55.9401 84.321 56.8218 84.8165C57.0607 85.6134 56.577 86.8486 56.3666 87.2471C56.2865 87.4164 56.2747 87.6102 56.3337 87.788C56.3927 87.9658 56.5179 88.1141 56.6834 88.202C56.8488 88.2899 57.0418 88.3107 57.2222 88.2601C57.4026 88.2094 57.5565 88.0913 57.652 87.9301C58.0222 87.2149 58.2556 86.437 58.3403 85.6362C61.1321 87.0841 64.0353 88.3062 67.022 89.2909C66.4997 90.2812 65.9756 91.1524 65.6402 91.2377ZM90.9557 80.1312C86.1284 81.8904 75.9982 80.0003 71.6746 81.5919C70.1438 82.3205 68.7947 85.5252 67.6618 87.9605C56.8446 84.4349 50.3831 78.7803 48.6297 77.1023C52.8025 69.1328 51.6299 63.2007 61.6777 59.1651C63.448 60.9243 67.5356 62.9447 72.887 63.9129C77.1621 69.9017 91.5306 69.5541 98.4875 68.1027C98.2883 70.7553 97.1723 78.2866 90.9557 80.1312ZM75.9497 54.7813C74.7849 54.756 73.6273 54.5897 72.5025 54.2858C73.7207 49.2762 79.6751 51.587 79.8918 49.6174C79.8749 49.5041 79.567 46.8795 82.1629 46.3613C84.3247 45.9687 85.2491 49.5894 85.2771 49.6805C87.5143 56.9787 86.5239 64.6298 84.2295 67.2824C78.0701 66.6508 74.3868 64.6637 73.0658 61.2539C73.8802 61.2252 76.2208 62.1647 76.3336 60.7642C76.3363 60.6678 76.3194 60.5718 76.2837 60.4822C76.2481 60.3926 76.1945 60.3111 76.1263 60.2429C76.0581 60.1747 75.9767 60.1212 75.887 60.0855C75.7974 60.0499 75.7014 60.0329 75.605 60.0356C74.6032 60.0115 73.6058 59.8953 72.6252 59.6886C72.3298 58.3895 72.2074 57.0572 72.2612 55.726C72.9623 55.7143 76.4908 57.1435 76.6731 55.504C76.6752 55.4085 76.6579 55.3135 76.6222 55.2249C76.5866 55.1362 76.5334 55.0557 76.4658 54.9881C76.3982 54.9206 76.3176 54.8674 76.2289 54.8319C76.1402 54.7963 76.0453 54.7791 75.9497 54.7813ZM105.923 62.6941C102.997 66.4399 94.2703 68.0227 85.9408 67.4191C88.1839 63.8381 88.6507 56.6428 86.9598 50.2724C89.0433 50.4261 93.7 50.7679 95.7099 50.8567C95.806 50.8629 95.9023 50.8498 95.9932 50.818C96.084 50.7862 96.1676 50.7364 96.2388 50.6716C96.31 50.6068 96.3674 50.5284 96.4077 50.4409C96.4479 50.3535 96.4701 50.2588 96.473 50.1626C96.4671 49.0641 94.2358 49.5877 92.7663 49.2231C92.4426 47.7739 92.2084 46.3061 92.0652 44.8281C92.0412 44.6398 91.9447 44.4682 91.7962 44.3499C91.6477 44.2315 91.459 44.1757 91.27 44.1942C91.081 44.2128 90.9067 44.3043 90.7841 44.4492C90.6615 44.5942 90.6002 44.7813 90.6133 44.9707C90.625 45.0876 90.8639 47.4358 91.2402 49.115C89.3121 48.9783 87.3968 48.8357 86.5263 48.7732C85.3192 43.6555 78.9605 43.5305 78.4195 49.018C70.6147 49.1091 69.4994 56.225 71.8902 62.2313C67.7115 61.3088 64.2333 59.5951 62.7931 58.2291C60.2713 55.8335 61.8705 45.7677 67.9347 38.9761C76.7929 42.9041 93.1081 41.1624 99.9284 30.5794C104.579 33.1982 108.541 35.7211 109.429 46.7411C110.049 54.3939 108.934 59.466 105.922 62.6941H105.923Z" fill="#001434"/>
<path d="M10.6029 15.4903C10.1629 16.028 9.91461 16.697 9.89709 17.3915C9.42967 21.2173 9.52666 33.9265 10.6198 38.5913C11.0353 40.3675 12.4702 40.0035 12.0887 38.3868C11.2462 34.8058 10.3692 20.0786 11.6563 16.9194C12.8114 14.0787 24.7266 5.17551 30.7271 2.27751C32.1328 1.59975 32.0645 0.444056 30.5734 1.11597C22.3754 4.82202 13.1474 12.4959 10.6029 15.4903Z" fill="#001434"/>
<path d="M15.8799 24.3091C16.2784 24.2688 16.6394 24.1777 16.9275 23.3159C17.4907 21.6419 18.5839 17.219 17.4224 17.3896C16.8422 17.4755 16.6044 17.5946 16.4718 18.3688C16.2269 19.7921 15.9593 22.4336 15.6123 22.4622C15.191 22.4961 14.619 20.339 13.8361 20.8456C13.5001 21.0617 13.187 21.4544 13.392 21.8014C14.6897 24.0468 15.4925 24.3091 15.8799 24.3091Z" fill="#001434"/>
<path d="M6.51503 32.4889C5.22261 21.3083 5.9401 16.7428 6.66343 14.9952C7.76187 12.342 15.1968 6.9509 23.5647 1.51422C24.7946 0.717274 24.4645 -0.700176 22.3237 0.592239C16.9776 3.86542 11.9245 7.59471 7.22083 11.7384C4.32341 14.3402 3.52646 18.4903 5.2343 32.2383C5.46742 34.0945 6.62312 33.4279 6.51503 32.4889Z" fill="#001434"/>
<path d="M76.0297 26.6315C77.4816 26.8418 75.8187 22.7431 79.5651 24.4737C79.6462 24.5274 79.7377 24.5633 79.8336 24.5792C79.9296 24.5951 80.0278 24.5905 80.1218 24.5658C80.2158 24.5411 80.3036 24.4968 80.3793 24.4358C80.4551 24.3749 80.5171 24.2986 80.5613 24.212C81.2385 22.4592 77.6808 22.2424 76.5935 23.0563C75.4489 23.9181 74.3844 26.3919 76.0297 26.6315Z" fill="#001434"/>
<path d="M64.8312 19.9072C65.8502 19.7704 65.7947 18.197 68.23 18.2712C68.3262 18.2823 68.4237 18.2731 68.5161 18.2443C68.6086 18.2155 68.694 18.1677 68.7669 18.1039C68.8398 18.0402 68.8986 17.9619 68.9394 17.8741C68.9803 17.7862 69.0023 17.6908 69.0041 17.594C68.7424 14.8608 61.9052 19.4403 64.8312 19.9072Z" fill="#001434"/>
<path d="M73.9283 26.642C75.0495 19.1732 64.1312 16.9132 63.2711 25.3274C63.18 27.9286 64.4724 31.367 67.0344 30.2288C69.3055 28.8342 70.6663 28.1564 72.727 27.8263C73.0224 27.7709 73.2945 27.6286 73.5085 27.4176C73.7225 27.2066 73.8687 26.9365 73.9283 26.642ZM66.2714 28.9878C64.1651 28.3615 63.943 23.1293 66.9941 21.7802C67.5319 23.7181 68.227 25.6089 69.0724 27.4337C68.1103 27.8987 67.1751 28.4176 66.2714 28.9878Z" fill="#001434"/>
<path d="M25.2099 61.8688C24.8686 61.7437 24.0886 61.4475 23.6674 61.3225C24.0997 60.9135 25.0392 59.9787 24.2476 59.7449C23.3373 59.4715 23.0924 59.9442 22.0559 60.8837C21.5155 60.7411 21.117 60.65 21.0773 60.6389C20.0466 60.4169 18.9739 61.6006 20.9119 62.0961C20.3201 62.6599 18.9938 64.0943 20.5649 64.0656C21.4758 64.0487 21.8573 63.0239 22.5117 62.5115C23.2712 62.6868 23.9402 62.9842 24.5841 63.115C25.3694 63.1442 25.9671 62.1194 25.2099 61.8688Z" fill="#001434"/>
<path d="M30.3621 55.1411C30.7892 54.6229 28.791 54.6153 28.025 54.2986C28.4866 53.7915 29.8813 52.5674 29.0183 52.3284C28.7858 52.2778 28.5451 52.2786 28.3129 52.3307C28.0808 52.3829 27.8629 52.4852 27.6745 52.6305C27.0826 53.2224 26.8208 53.4216 26.2231 53.9457C25.4601 53.8943 24.1676 53.5864 23.5355 54.2641C23.1265 54.7082 24.2366 55.3573 24.7139 55.2831C24.1215 55.8294 21.9754 58.0099 23.8311 57.8849C25.0581 57.7996 25.7837 56.0631 26.6491 55.5051C27.6809 55.5566 29.3548 56.3704 30.3621 55.1411Z" fill="#001434"/>
<path d="M12.7598 64.9923C12.57 64.9884 12.3861 65.059 12.2476 65.1889C12.1092 65.3188 12.027 65.4978 12.0188 65.6875C12.0105 65.8772 12.0768 66.0626 12.2035 66.204C12.3302 66.3454 12.5072 66.4317 12.6967 66.4443C15.5094 66.5354 22.5569 67.9014 24.2192 68.9035C24.3914 68.9906 24.5911 69.006 24.7747 68.9462C24.9582 68.8864 25.1106 68.7563 25.1984 68.5845C25.608 66.2585 15.2015 65.2845 12.7598 64.9923Z" fill="#001434"/>
<path d="M32.1785 52.2026C32.8334 52.1056 36.2684 48.895 35.0361 48.3464C33.9149 47.8392 32.9754 49.5815 31.4721 51.1813C31.0344 51.6504 31.5521 52.2937 32.1785 52.2026Z" fill="#001434"/>
<path d="M34.273 45.3721C30.0376 45.3779 28.8819 46.0609 11.3694 62.8886C9.58738 64.6081 8.94935 66.1915 9.56459 67.5628C11.3221 71.4775 21.3085 71.5359 24.1837 71.4967C30.0043 71.4144 33.5321 66.857 39.9416 58.7794C41.7289 56.0976 47.3537 51.1336 45.9304 48.1456C45.0038 46.186 41.622 45.3832 34.273 45.3721ZM42.3734 53.4105C36.8403 60.1566 29.8833 70.6139 24.1393 70.039C20.0295 70.1751 11.9344 69.4185 10.9096 67.0007C10.5053 66.0384 11.4904 64.8091 12.3843 63.9438C30.1684 46.8246 30.8684 46.8199 34.273 46.831C43.3754 47.0852 47.5827 47.2564 42.3734 53.4105Z" fill="#001434"/>
<path d="M24.755 28.8258C23.9919 29.4007 22.0562 30.2094 22.4891 31.5585C22.7906 32.5091 24.6013 30.8977 25.4497 30.0668C26.0871 29.3692 25.66 28.134 24.755 28.8258Z" fill="#001434"/>
<path d="M39.9428 51.1456C40.3244 50.6391 41.5998 49.3981 40.5347 49.2894C39.2767 49.1585 38.8269 50.4737 38.1976 50.9803C37.3323 50.992 36.1766 50.462 35.5444 51.4927C35.1746 52.1015 36.5236 52.3521 37.0875 52.3463C35.2826 54.5782 33.7682 56.525 31.8956 58.6997C30.7796 58.5402 29.1688 58.3579 28.2351 58.2101C28.0459 58.1905 27.8561 58.2412 27.7018 58.3525C27.5476 58.4638 27.4396 58.6279 27.3984 58.8136C27.2103 59.423 28.8007 59.6164 30.7399 60.0149C30.4384 60.8329 26.584 63.8518 28.2123 63.9599C29.8004 64.068 29.4703 63.51 32.4705 60.2539C33.1122 60.3933 33.7739 60.4144 34.4232 60.3164C35.2371 60.1803 36.0288 59.7642 33.5865 58.9556C35.4311 56.7815 36.9624 54.7944 38.8292 52.5058C39.8225 52.4036 41.7728 52.6939 42.218 51.9426C42.6755 51.162 40.7117 51.3267 39.9428 51.1456Z" fill="#001434"/>
<path d="M29.7353 14.1928C30.544 8.72754 31.3526 8.32322 30.2308 8.26655C28.7561 8.19235 28.8531 12.6042 28.4149 13.3386C28.0572 12.9003 27.7354 12.4339 27.4526 11.944C27.3525 11.7827 27.1934 11.6669 27.0092 11.6211C26.8249 11.5754 26.6301 11.6034 26.4662 11.6991C26.3023 11.7948 26.1822 11.9507 26.1315 12.1336C26.0808 12.3165 26.1034 12.512 26.1946 12.6784C27.7827 15.3258 29.4397 16.1507 29.7353 14.1928Z" fill="#001434"/>
<path d="M42.4705 37.0641C43.4328 37.126 43.5807 35.9767 42.63 35.6618C40.6377 35.001 35.5194 35.3825 34.1476 38.6217C33.4984 40.1531 33.5902 41.7131 34.5349 42.4925C34.8312 42.9015 41.8822 44.6327 41.9412 43.0277C41.9515 42.8349 41.8857 42.6458 41.758 42.501C41.6302 42.3562 41.4508 42.2674 41.2582 42.2536C38.827 42.0999 36.2141 41.7014 35.8501 41.2632C34.2673 39.3603 36.3398 36.679 42.4705 37.0641Z" fill="#001434"/>
<path d="M21.6013 14.278C20.5881 14.9552 19.0451 15.4963 19.6317 16.3557C20.1721 17.1468 21.544 15.7183 23.3774 14.7846C24.22 14.3581 23.5142 13.009 21.6013 14.278Z" fill="#001434"/>
<path d="M22.6377 17.1686C21.8688 17.6945 20.0867 18.0626 20.491 19.3889C20.6844 20.0263 21.51 19.681 22.0452 19.2866C22.4665 18.9851 22.9672 18.672 23.3031 18.461C25.011 17.3848 23.867 16.3319 22.6377 17.1686Z" fill="#001434"/>
</svg>
