<svg width="111" height="77" viewBox="0 0 111 77" fill="none" xmlns="http://www.w3.org/2000/svg">
<path d="M37.5962 32.9757C36.0834 35.5921 41.9362 38.9711 45.1788 35.7223C48.688 32.1883 39.2144 30.1857 37.5962 32.9757Z" fill="#3D9CFB"/>
<path d="M7.7129 55.0229C8.2213 52.3321 8.2647 51.9229 5.7909 53.4729C1.8973 51.8795 5.3383 54.2603 3.1001 56.7899C5.0841 57.1867 5.2081 57.0813 6.3179 58.9165C8.0539 56.2567 6.9689 57.6331 9.6535 56.4365C9.8333 55.9033 7.8741 55.4569 7.7129 55.0229Z" fill="#3D9CFB"/>
<path d="M105.778 55.2271C106.907 52.1271 107.229 50.4779 102.306 52.4805C100.186 50.8313 99.0822 50.1989 98.952 53.9499C95.852 55.8099 96.224 56.5415 99.2868 57.2979C99.8572 62.4625 101.885 61.4705 103.311 58.3829C107.21 59.3129 108.5 59.2199 105.778 55.2271Z" fill="#3D9CFB"/>
<path d="M69.0865 28.2574C69.0865 24.8288 62.8865 27.6932 63.4197 30.0554C64.0397 32.8826 69.0865 31.562 69.0865 28.2574Z" fill="#3D9CFB"/>
<path d="M23.8576 1.8456C17.7506 5.0386 13.5098 12.212 16.2626 25.4056C17.8498 33.0068 6.51003 45.3448 21.2226 48.296C20.46 44.6256 20.367 36.7764 28.8858 35.5302C30.5598 36.7702 31.217 39.3866 33.263 39.2068C22.6362 17.5068 50.3688 17.141 54.6282 4.9952C60.5802 16.7752 79.0128 4.8154 70.8474 31.8784C97.96 -1.81239 48.36 -35.776 23.8576 1.8456ZM43.834 5.60281C43.6232 6.99781 41.974 7.61161 39.6304 8.26261C37.2806 13.2226 34.8874 13.1668 33.4676 8.40521C28.0984 9.18021 27.3296 5.92521 31.7564 2.50281C30.5474 -1.14899 32.6864 -2.41999 36.1274 -0.838994C39.4258 -3.08959 41.6578 -1.84959 40.8332 1.8518C43.1272 3.35841 44.02 4.46201 43.834 5.60281Z" fill="#3D9CFB"/>
<path d="M39.3637 3.07336C38.4089 2.45336 39.4195 0.667759 39.1219 -0.181641C38.9049 -0.181641 38.2663 -0.0142408 36.6419 0.946759C36.521 1.0203 36.3844 1.06425 36.2433 1.07503C36.1021 1.0858 35.9604 1.0631 35.8297 1.00876C33.7465 0.140761 33.2753 0.32056 33.2257 0.32056C33.1761 0.32056 33.1079 0.74836 33.6659 2.55876C33.7195 2.73367 33.7191 2.92064 33.6649 3.09535C33.6107 3.27006 33.5052 3.42442 33.3621 3.53836C30.6713 5.68356 30.6899 6.52056 30.6899 6.52056C35.2841 7.25216 33.8333 4.66056 36.2203 10.1228C36.6853 10.191 37.3363 7.89696 38.7623 6.60736C39.5187 6.40276 41.8189 5.78276 42.0359 5.31156C42.0297 5.31776 41.9181 4.73496 39.3637 3.07336Z" fill="#3D9CFB"/>
<path d="M91.5614 71.2053C92.0264 69.6615 94.4444 66.6793 92.7332 65.7369C91.4932 64.8999 89.224 66.5057 87.7732 66.9273C83.1232 63.6289 81.5236 64.2799 82.0878 69.7545C77.3014 73.0095 79.5086 74.4789 83.9478 75.2601C84.45 76.7419 84.3012 79.6001 86.1116 79.8109C86.2351 79.8235 86.3598 79.8107 86.4781 79.7734C86.5964 79.7361 86.7059 79.675 86.7998 79.5939C90.557 76.3947 87.922 76.6427 92.4232 76.5373C92.8448 76.4815 93.9918 76.6427 94.2832 76.2583C96.1618 74.2495 92.3798 72.3213 91.5614 71.2053ZM92.3798 74.7207C87.581 74.7207 88.7094 75.2291 86.3162 77.5975C85.4482 72.6995 85.5288 74.0077 81.3996 72.7057C82.0587 72.0398 82.7932 71.4531 83.5882 70.9573C83.7191 70.8654 83.824 70.7412 83.8924 70.5966C83.9609 70.4521 83.9907 70.2922 83.9788 70.1327C83.8482 69.0112 83.8233 67.8799 83.9044 66.7537C87.984 68.6137 86.341 69.7235 91.3444 67.4233C89.1124 71.8439 88.9822 71.4533 92.665 74.7083L92.3798 74.7207Z" fill="#001434"/>
<path d="M14.9793 63.951C12.2265 61.471 10.8563 62.866 11.2593 66.3938C10.2611 67.0138 8.41355 67.4974 8.81035 68.9544C9.20715 70.4114 10.8315 70.1448 11.9103 70.3308C12.1707 71.2856 12.0591 72.91 13.6525 73.0092C13.8006 73.0159 13.948 72.9853 14.0812 72.9204C14.2145 72.8554 14.3293 72.758 14.4151 72.6372C15.3699 71.298 15.7605 70.647 16.8083 70.7276C17.2857 70.6222 18.4079 70.8206 18.8357 70.2378C19.6789 68.9048 18.2653 68.0554 17.6577 67.2432C18.9473 64.4408 18.0235 62.8784 14.9793 63.951ZM13.7393 70.4362C13.6277 68.9978 12.6047 68.415 11.2593 68.4398C13.6277 67.4478 13.0015 66.7782 13.0449 64.7198C13.4231 64.8624 14.2849 66.1024 15.0537 65.8048C15.4726 65.6599 15.8989 65.5378 16.3309 65.439C16.2069 65.8482 15.9775 66.4496 15.8039 66.927C15.5621 67.6772 16.2131 68.3716 16.6843 68.88C15.1777 69.0474 14.8057 69.0722 13.7641 70.4362H13.7393Z" fill="#001434"/>
<path d="M114.34 52.3446C113.339 48.8632 112.63 45.3045 112.22 41.7054C108.171 37.322 112.66 52.977 112.61 52.8158C114.886 61.2788 115.363 63.0458 95.8705 69.3388C95.6578 69.4257 95.4857 69.5897 95.3888 69.798C95.2918 70.0064 95.2772 70.2436 95.3477 70.4623C95.4183 70.681 95.5688 70.865 95.7692 70.9774C95.9696 71.0898 96.2051 71.1224 96.4285 71.0686C116.764 64.4904 116.932 61.967 114.34 52.3446Z" fill="#001434"/>
<path d="M120.634 59.7904C119.208 54.105 117.031 43.3356 115.085 38.7104C111.315 33.7504 104.08 32.436 98.6981 34.3332C94.5627 28.6974 87.8295 24.7852 82.2371 21.1458C94.4573 -10.5734 45.4711 -29.8616 24.6577 -4.27417C16.1203 4.72823 2.5795 3.05423 7.5581 25.6408C9.1267 36.1064 3.2181 48.99 21.0121 52.4124C22.2025 60.274 25.3025 66.4368 30.2687 70.7148C41.8069 80.9758 63.0853 77.479 67.0037 64.9922C69.0249 64.0002 70.2277 62.6114 70.5873 60.8382C74.6855 61.8054 79.0937 62.258 79.0875 58.7302C78.6287 56.3804 73.9663 54.4336 70.4943 53.3982C71.1143 47.7004 60.2209 43.7262 56.6931 48.8164C51.8757 47.5268 48.8563 49.3496 51.3735 53.4664C48.0317 54.5762 45.8927 52.0094 44.8077 48.4444C44.7373 48.2146 44.58 48.0212 44.3693 47.9055C44.1586 47.7897 43.9111 47.7606 43.6793 47.8244C42.3339 48.3328 43.4871 50.013 43.7661 50.8686C36.0409 49.0086 27.6461 55.9464 26.7905 63.839C25.3739 61.4623 24.3069 58.8939 23.6223 56.213C22.7639 53.1811 22.2563 50.0607 22.1095 46.913C22.0227 42.1142 23.9695 36.993 29.1403 36.4288C40.4801 49.4488 59.5203 42.697 72.6767 32.2128C79.4967 38.3136 83.1175 44.2284 83.4585 49.796C83.4727 50.0269 83.574 50.2437 83.7421 50.4026C83.9102 50.5615 84.1324 50.6505 84.3637 50.6516C86.7011 49.5976 83.9917 44.495 83.1919 42.3374C84.5683 39.2746 88.7719 32.4174 94.1287 31.909C95.1607 32.8644 96.1144 33.9011 96.9807 35.009C92.4299 37.3092 89.8073 41.6244 90.0615 46.355C87.4327 48.835 87.3769 51.7056 87.3211 55.4504C87.9101 56.585 85.5913 65.079 87.5071 64.8434C87.7184 64.843 87.9229 64.7692 88.0858 64.6346C88.2486 64.5 88.3597 64.313 88.3999 64.1056C90.7001 55.5062 85.4239 48.6676 96.3359 44.8856C101.172 48.3514 110.143 46.7146 108.004 39.721C109.387 39.194 112.797 37.923 113.404 39.3924C114.886 42.9636 116.752 51.1352 117.868 56.0208C122.549 66.6352 111.668 68.1418 97.4457 73.139C97.3236 73.1427 97.2034 73.1704 97.0919 73.2205C96.9805 73.2706 96.88 73.3422 96.7963 73.4311C96.7125 73.5201 96.6471 73.6247 96.6037 73.7389C96.5604 73.8531 96.5399 73.9748 96.5436 74.0969C96.5473 74.219 96.5749 74.3393 96.6251 74.4507C96.6752 74.5621 96.7468 74.6626 96.8357 74.7464C96.9247 74.8301 97.0292 74.8956 97.1435 74.9389C97.2577 74.9823 97.3794 75.0027 97.5015 74.999C110.056 71.1798 122.922 67.0692 120.634 59.7904ZM72.3977 55.965C76.0309 57.4406 77.4011 58.538 77.2337 59.22C76.6137 59.7532 74.3817 59.9826 71.0957 59.096C72.0753 58.29 72.7945 57.174 72.3977 55.965ZM68.6777 52.772C65.3545 51.532 61.4609 50.0998 58.6895 49.331C61.7833 46.7208 68.4855 49.5232 68.6963 52.772H68.6777ZM52.3469 50.54C53.5869 49.0706 63.1783 52.6852 66.7495 53.9996C62.3475 54.8242 57.9021 56.5478 53.3513 53.2184C52.2353 51.5072 52.2043 50.7136 52.3469 50.54ZM45.4773 53.4912C46.3337 54.4948 47.5049 55.1784 48.7998 55.4306C50.0947 55.6829 51.4369 55.4888 52.6073 54.88C59.4273 60.0322 67.6857 53.6028 70.5873 56.3122C71.0895 58.0854 66.0861 59.7036 64.9205 59.9392C64.697 59.9757 64.4952 60.0942 64.3542 60.2714C64.2132 60.4486 64.1433 60.6719 64.158 60.8979C64.1727 61.1238 64.271 61.3362 64.4337 61.4937C64.5965 61.6511 64.812 61.7424 65.0383 61.7496C66.345 61.524 67.6112 61.1061 68.7955 60.5096C68.3739 62.3696 66.5077 63.6406 63.1349 64.366C62.9195 64.417 62.73 64.5446 62.6018 64.7251C62.4735 64.9056 62.4154 65.1265 62.4382 65.3467C62.461 65.5669 62.5631 65.7713 62.7255 65.9217C62.888 66.0721 63.0996 66.1582 63.3209 66.164C63.8334 66.0849 64.3392 65.9668 64.8337 65.8106C59.3405 76.7102 39.1161 79.1406 28.4273 66.1764C27.9747 57.6762 37.8947 49.3 45.4773 53.485V53.4912ZM22.6551 38.2702C20.2619 41.6368 19.9209 46.6836 20.6153 50.5028C5.0471 47.3408 11.1231 34.9098 9.3003 25.1758C5.5803 11.2134 12.2081 5.24283 18.3957 2.68843C27.1997 -1.65157 27.6957 -7.79577 38.7999 -12.049C63.4139 -24.2258 98.4315 6.66263 74.6483 28.251C82.2123 5.26143 65.1251 14.3692 55.1183 2.99843C48.0689 14.9458 19.1149 14.6792 28.2103 34.7176C27.095 34.9119 26.0296 35.326 25.0759 35.936C24.1222 36.5459 23.2993 37.3393 22.6551 38.2702ZM71.9203 30.4644C32.4697 62.7416 9.2383 15.541 48.4967 15.2806C48.7274 15.2748 48.9472 15.1817 49.112 15.0201C49.2767 14.8585 49.374 14.6404 49.3842 14.4099C49.3944 14.1794 49.3168 13.9536 49.1671 13.778C49.0173 13.6025 48.8065 13.4903 48.5773 13.464C48.4471 13.464 46.7173 13.3834 44.3117 13.526C48.7819 11.4428 53.0847 9.14263 55.3229 5.60243C57.2883 8.00183 59.8055 9.28523 62.3785 10.1718C60.8949 10.5475 59.4436 11.0409 58.0385 11.6474C57.814 11.7477 57.6386 11.9331 57.5508 12.1627C57.4631 12.3924 57.4701 12.6475 57.5704 12.8719C57.6707 13.0964 57.8561 13.2718 58.0857 13.3596C58.3153 13.4474 58.5704 13.4403 58.7949 13.34C61.9631 11.4304 70.9965 10.1656 73.9539 15.5472C75.3675 18.3 74.7103 23.1732 71.9203 30.4644ZM82.0883 40.3844C79.889 36.9155 77.1992 33.783 74.1027 31.0844C77.0289 28.7926 79.4945 25.9673 81.3691 22.7578C85.0085 25.1138 88.8091 27.414 92.3865 30.39C87.6993 31.6858 84.0041 36.7202 82.1131 40.3782L82.0883 40.3844ZM105.27 44.03C101.649 47.2974 95.3501 40.7254 94.9285 43.4782C93.855 43.9029 92.8182 44.4151 91.8285 45.0096C93.5645 30.979 111.042 37.3898 105.295 44.0238L105.27 44.03ZM107.099 38.14C105.978 36.8119 104.497 35.8365 102.833 35.3314C105.477 35.1821 108.109 35.7932 110.416 37.0922C109.285 37.3535 108.175 37.7039 107.099 38.14Z" fill="#001434"/>
<path d="M65.286 14.0661C57.846 14.1405 54.746 25.6973 64.046 26.0631C72.4842 26.3917 74.6046 13.9607 65.286 14.0661ZM60.8778 23.0871C56.4076 17.5071 69.2664 12.2743 69.5578 19.2865C66.7182 19.6833 63.24 21.3511 60.8778 23.0871Z" fill="#001434"/>
<path d="M91.76 63.8079C93.7502 62.9461 92.5226 59.0897 92.9194 56.5477C92.535 54.0677 93.961 50.5151 92.4048 49.9385C89.9248 49.9385 91.6856 60.7389 90.861 62.7725C90.8423 62.9013 90.8515 63.0326 90.8882 63.1575C90.9248 63.2824 90.9879 63.3979 91.0733 63.4962C91.1586 63.5944 91.2641 63.6731 91.3826 63.7269C91.5011 63.7807 91.6298 63.8083 91.76 63.8079Z" fill="#001434"/>
<path d="M55.3348 29.4603C53.7166 30.5329 51.2056 30.2725 50.2632 28.9395C50.1251 28.743 49.9146 28.6094 49.678 28.5682C49.4414 28.5269 49.198 28.5813 49.0015 28.7194C48.805 28.8575 48.6715 29.0681 48.6302 29.3047C48.5889 29.5413 48.6433 29.7846 48.7814 29.9811C52.0798 34.6497 60.1398 29.5347 55.3348 29.4603Z" fill="#001434"/>
<path d="M51.224 23.8241C52.5694 24.1837 52.3958 21.4743 53.5428 21.8215C55.2912 21.9889 54.0264 25.0641 55.5764 25.3059C58.2982 24.4937 55.223 19.6763 53.828 20.0235C52.6376 19.3353 49.0788 22.4601 51.224 23.8241Z" fill="#001434"/>
<path d="M42.0733 17.6118C33.4925 17.7606 31.8867 30.6814 41.6517 30.0118C49.8605 29.46 51.3857 17.2646 42.0733 17.6118ZM37.6465 27.1102C32.7361 21.1458 46.3265 15.5038 46.6365 23.0244C43.6419 23.4708 39.9529 25.2936 37.6465 27.1102Z" fill="#001434"/>
</svg>
