<svg width="144" height="142" viewBox="0 0 144 142" fill="none" xmlns="http://www.w3.org/2000/svg">
<path d="M10.1499 148.327C13.2797 150.672 25.9552 151.378 60.1532 151.305C53.2592 150.074 54.5609 148.407 54.0827 134.026C52.7947 134.567 46.3805 137.014 46.3805 137.014C46.1293 144.474 46.7411 148.427 42.436 147.768C39.8946 147.383 29.5174 134.347 26.6306 130.308C16.4498 116.059 18.3947 115.13 18.9131 114.495C19.5168 113.758 27.4944 108.04 33.5254 104.321C36.2624 102.023 45.4169 89.1359 45.4169 89.1359C46.6325 87.2216 46.3893 84.1706 43.0406 80.9707C42.1228 81.8409 40.3494 83.2529 39.1765 84.2881C40.1965 88.5321 38.6936 90.5478 36.2785 91.5911C34.4351 92.3832 33.783 91.9936 32.4822 90.6815C21.5398 97.8741 13.4037 87.0259 14.0573 78.1862C14.5202 71.9266 22.6298 63.1497 22.6934 63.103C26.2769 59.6428 30.0582 56.3934 34.0181 53.3713C41.4861 47.9432 55.894 52.7201 57.5338 53.0421C58.7574 47.0923 63.6123 45.6433 64.5614 43.4867C66.8275 38.3347 71.2985 33.0314 77.5107 30.7251C83.1456 28.6321 90.9783 28.2626 99.7641 31.3916C105.811 33.549 114.722 39.5181 116.926 44.6089C117.992 47.0714 119.35 51.2365 121.756 53.7859C124.297 56.4843 131.318 68.5399 126.078 71.5442C124.321 72.548 122.925 70.5557 121.85 71.3325C119.489 73.0495 124.352 79.4195 121.027 81.7331C119.269 82.9567 117.308 80.7759 116.179 81.6526C115.049 82.5292 117.306 88.2729 110.767 89.1206C111.284 89.8571 112.377 91.7714 112.779 92.4533C107.9 95.8576 103.361 99.592 93.4207 106.243C92.9039 108.122 91.965 109.858 90.6756 111.318C90.1041 133.264 90.6676 125.003 87.3816 139.689C94.088 144.466 96.7308 146.819 92.1737 151.102C115.658 150.576 140.75 151.36 147.872 150.748C158.524 149.839 157.677 139.987 155.881 70.0364C155.434 52.349 111.721 26.3781 99.5548 15.9936C87.3888 5.60906 74.021 7.95483 59.9729 20.1594C48.4429 30.1873 5.25546 58.5861 4.76119 71.9362C3.29448 111.17 3.52149 143.361 10.1499 148.327Z" fill="#6149C3" fill-opacity="0.1"/>
<path d="M133.374 131.295C140.826 136.684 143.422 138.833 145.751 140.552C147.093 141.549 149.368 140.765 144.167 136.655C123.224 120.411 101.646 108.056 94.1164 106.982C100.305 101.773 109.239 96.6357 119.35 89.4978C127.978 83.4112 133.406 77.521 143.234 75.787C144.522 75.56 144.936 74.0539 143.642 73.8108C133.338 74.2133 124.307 84.4464 112.862 91.1609C112.557 90.6586 112.218 90.1338 111.851 89.6C118.408 88.8393 114.973 81.1475 117.733 82.4854C127.852 85.4583 119.122 70.6181 122.95 71.952C124.566 73.0887 127.986 72.171 128.355 69.0025C129.35 60.4212 121.295 53.9812 118.8 47.5187C116.792 42.8046 114.84 37.6494 101.481 31.7133C84.4805 24.1584 72.2011 28.2381 64.8748 40.8669C62.7254 45.4474 58.4742 46.4279 56.8747 51.856C36.7706 45.3452 29.4523 54.1382 16.9853 69.4654C16.1788 68.7858 15.2257 68.3025 14.2008 68.0534C13.9423 68.0196 13.6807 68.0867 13.4705 68.2409C13.2603 68.395 13.1176 68.6243 13.0721 68.8811C13.0267 69.1378 13.082 69.4021 13.2266 69.6191C13.3712 69.836 13.5938 69.9889 13.8482 70.0458C14.6063 70.2584 15.3046 70.6442 15.8881 71.1728C7.29069 81.7698 20.3897 99.7157 32.5516 91.8098C36.5363 95.2713 41.7447 90.6409 40.2385 84.9383C41.3132 83.9819 42.2148 83.1737 43.0464 82.3574C46.2229 85.472 45.2746 86.6167 44.0663 88.5857C42.1528 91.6995 34.7323 101.574 32.2457 103.708C25.1705 108.352 21.5545 110.329 17.5464 114.486C17.0996 115.043 15.7504 116.141 23.3038 127.295C20.4242 129.486 17.9952 132.213 16.1505 135.326C15.265 136.973 16.7945 138.377 18.0721 136.386C19.8052 133.671 22.4996 130.62 24.6731 129.287C31.881 139.335 47.4352 162.309 47.1326 138.033C48.9913 137.264 51.5093 136.244 53.0855 135.561C53.831 149.568 48.8657 151.893 69.3538 151.532C75.0693 151.555 85.3314 151.265 91.9743 151.178C93.7863 151.155 95.0172 149.508 95.2997 147.878C95.7546 145.196 94.5937 144.019 88.4991 139.595C90.8843 128.818 91.7996 129.304 91.6764 111.123C92.1797 110.417 92.5786 109.643 92.8606 108.824C96.83 108.559 112.792 116.41 133.374 131.295ZM94.2734 104.352C95.6612 99.504 97.144 94.0839 99.9679 88.4521C101.966 87.4721 103.793 86.1773 105.38 84.6171C107.508 87.0369 109.453 89.6114 111.2 92.3193C104.368 97.0753 97.9908 101.609 94.2734 104.354V104.352ZM63.722 52.8993C67.0555 49.4716 70.0815 51.1653 72.738 48.9934C86.1904 37.9488 89.5472 46.6324 99.1009 55.5944C96.434 55.8762 95.3279 58.1511 97.0377 58.387C98.1285 58.5431 98.5994 56.9195 102.003 57.916C104.3 59.6409 106.689 61.2409 109.158 62.709C116.532 71.267 102.335 90.884 90.2234 87.8797C75.6843 84.2725 61.9494 75.589 60.9608 63.3474C60.506 57.7703 61.6121 55.072 63.722 52.8993ZM71.1183 81.868C76.3661 85.6204 82.3271 88.2579 88.6335 89.6177C87.8334 91.5312 86.8682 93.7901 86.0841 95.6882C82.1621 94.0235 71.6448 89.0277 68.6711 86.9492C69.4632 85.2442 70.279 83.5503 71.1183 81.868ZM64.9633 90.24C62.764 95.4331 61.2217 98.6925 58.9306 98.8761C57.5034 98.9855 54.2954 98.2095 53.6675 95.425C53.1845 93.2676 62.1627 80.357 64.2018 75.5882C65.7937 77.4342 67.5618 79.1206 69.481 80.6235C67.6512 84.2428 66.1112 87.5272 64.9633 90.24ZM38.796 83.5416C38.3725 83.8636 37.9491 84.3337 38.1455 84.9061C39.5253 88.8908 36.3407 92.9851 33.6424 89.9341C31.6975 88.2871 28.2304 94.1201 22.4263 90.8832C23.0703 89.3932 26.2613 87.8637 24.9677 86.2239C23.1395 85.4189 21.8926 88.7733 20.6923 89.8246C19.25 88.7512 18.0257 87.4124 17.0851 85.8801C17.9553 84.861 19.2264 83.4176 20.0572 82.4371C20.23 82.2319 20.3147 81.9667 20.2927 81.6993C20.2707 81.4319 20.1438 81.1841 19.9397 81.0099C18.2612 80.0761 17.2727 83.0642 16.0652 83.9666C12.8959 76.1694 18.3941 70.4426 25.1875 62.7951C29.8701 65.2423 39.9334 76.0503 41.8711 80.7177C40.9743 81.5911 39.9946 82.4701 38.7944 83.5448L38.796 83.5416ZM26.6759 61.3156C28.8962 59.1752 31.2375 57.1639 33.6883 55.2917C38.2615 60.484 45.8776 68.6805 47.7677 74.7051C48.427 76.0849 44.9679 78.0467 43.4304 79.2936C40.8133 74.0595 31.782 64.3746 26.6759 61.3156ZM44.5364 80.9954C46.7325 79.1519 50.6617 77.4188 49.6973 74.1239C47.6969 67.7242 40.0083 59.4013 35.3393 54.1068C41.9202 49.4321 51.6156 51.9027 56.4939 53.8564C55.247 60.7585 59.8435 68.1162 62.8003 73.8027C60.9882 78.0145 56.1647 85.608 53.8116 90.0001C51.4013 89.2062 49.1668 87.9547 47.2308 86.314C47.3676 84.8232 46.7325 83.1681 44.5364 80.9954ZM43.4771 146.561C37.673 147.079 19.9614 119.399 19.2321 115.649C19.71 115.107 20.2295 114.604 20.7857 114.143C27.3585 122.574 39.3595 130.615 45.1168 137.649C45.0693 145.448 44.724 145.957 43.4771 146.561ZM93.3065 147.542C92.6086 150.154 88.2165 149.605 81.9883 149.643C72.2477 149.714 57.4527 150.695 55.8056 148.161C55.4596 147.557 55.2785 146.873 55.2808 146.177C64.4183 145.384 79.3374 141.071 87.0163 141.025C93.3323 145.604 93.6696 146.2 93.3082 147.542H93.3065ZM86.5687 138.984C78.6483 139.227 64.3998 143.289 55.1801 144.153C55.0779 141.078 55.1334 137.612 55.0996 134.67C60.2211 132.255 61.8061 130.599 66.5983 123.007C68.5826 119.861 70.1121 117.782 69.3353 117.257C67.9313 116.308 66.7005 119.061 64.9279 121.861C61.4865 127.305 60.6139 129.376 57.0888 131.475C54.9411 132.754 51.8088 134.043 46.5103 136.113C40.5259 129.047 28.9798 121.257 22.3603 112.873C24.8155 110.966 28.6667 108.394 33.5063 105.318C36.8946 102.259 44.4173 92.2042 46.5658 88.3611C48.4545 89.8626 50.5879 91.0273 52.8722 91.8041C49.7118 97.6871 55.9232 101.523 60.8184 100.699C62.8808 100.353 65.7836 93.3964 67.8307 88.8079C71.5563 91.2624 81.5729 95.9611 85.3218 97.5534C81.0472 106.927 80.9748 111.735 89.6688 112.253C89.7863 129.057 88.6714 129.435 86.5703 138.984H86.5687ZM90.2081 109.445C88.9064 111.107 84.4588 110.19 83.9412 107.217C83.4397 104.346 88.7969 94.6434 90.679 89.9607C92.8707 90.2742 95.1042 90.1136 97.2285 89.4897C92.5281 99.8461 92.2914 106.773 90.2097 109.445H90.2081Z" fill="#1D1D1D" fill-opacity="0.2"/>
<path d="M81.1744 47.6207C82.1325 47.4313 83.1222 47.4765 84.0591 47.7524C84.996 48.0283 85.8523 48.5266 86.555 49.2049C87.4252 50.1862 88.7752 48.9312 88.0451 47.8364C86.2741 45.1928 80.2366 44.362 79.9951 46.8012C79.9427 47.3623 80.6173 47.7148 81.1744 47.6207Z" fill="#1D1D1D" fill-opacity="0.2"/>
<path d="M78.0529 63.9126C86.6728 65.7955 92.5791 51.9036 81.9169 49.5353C71.6676 47.2604 68.0757 61.8969 78.0529 63.9126ZM74.2251 55.7394C77.5505 56.2965 81.8806 56.955 85.5273 57.2923C84.4687 64.0929 72.9073 63.168 74.2251 55.7394Z" fill="#1D1D1D" fill-opacity="0.2"/>
<path d="M84.406 67.0656C84.4164 67.327 84.5276 67.5742 84.7162 67.7554C84.9049 67.9367 85.1563 68.0379 85.4179 68.0379C85.6795 68.0379 85.9309 67.9367 86.1196 67.7554C86.3082 67.5742 86.4193 67.327 86.4298 67.0656C86.4035 66.749 86.4559 66.4309 86.5823 66.1394C86.7087 65.848 86.9052 65.5924 87.1543 65.3952C88.2603 64.6103 89.5073 65.5675 90.1577 64.36C90.7776 63.2064 87.7105 62.3048 85.5934 64.1555C85.1779 64.5108 84.8533 64.9603 84.6468 65.4665C84.4402 65.9728 84.3577 66.521 84.406 67.0656Z" fill="#1D1D1D" fill-opacity="0.2"/>
<path d="M99.6145 75.7959C108.861 76.5204 111.836 62.6325 101.599 60.9315C91.0582 59.1799 88.9209 74.9579 99.6145 75.7959ZM94.6026 66.9875C97.8733 67.5366 102.243 68.2192 105.984 68.5798C105.45 76.2668 92.7278 74.9096 94.6026 66.9875Z" fill="#1D1D1D" fill-opacity="0.2"/>
<path d="M81.8877 70.5092C81.6268 70.4778 81.3638 70.5491 81.1546 70.7082C80.9453 70.8672 80.8061 71.1014 80.7665 71.3612C80.7268 71.6211 80.7898 71.8861 80.9422 72.1003C81.0945 72.3145 81.3242 72.461 81.5826 72.5088C86.2967 73.2068 85.9667 74.4779 86.2967 75.1839C86.6807 76.0074 88.5 76.0468 88.2287 74.4594C87.9574 72.8719 86.8216 70.8699 81.8877 70.5092Z" fill="#1D1D1D" fill-opacity="0.2"/>
<path d="M88.9479 103.217C85.8809 102.15 84.0455 106.598 87.771 107.644C90.9556 108.551 91.8508 104.229 88.9479 103.217Z" fill="#1D1D1D" fill-opacity="0.2"/>
<path d="M59.6511 91.9447C59.3906 91.7686 59.0965 91.6483 58.7874 91.5914C58.4782 91.5345 58.1606 91.5421 57.8545 91.6138C57.5484 91.6855 57.2604 91.8198 57.0087 92.0081C56.757 92.1965 56.5469 92.4348 56.3918 92.7083C56.2366 92.9817 56.1396 93.2842 56.107 93.5969C56.0744 93.9096 56.1068 94.2257 56.2022 94.5252C56.2976 94.8248 56.4539 95.1014 56.6614 95.3376C56.8688 95.5739 57.1228 95.7647 57.4075 95.898C57.668 96.0741 57.9621 96.1943 58.2713 96.2513C58.5805 96.3082 58.8981 96.3006 59.2042 96.2288C59.5103 96.1571 59.7982 96.0229 60.0499 95.8345C60.3017 95.6462 60.5117 95.4078 60.6669 95.1344C60.822 94.861 60.919 94.5584 60.9516 94.2457C60.9842 93.933 60.9518 93.617 60.8564 93.3174C60.761 93.0179 60.6047 92.7413 60.3973 92.505C60.1898 92.2688 59.9358 92.078 59.6511 91.9447Z" fill="#1D1D1D" fill-opacity="0.2"/>
</svg>
